<svg xmlns="http://www.w3.org/2000/svg" xmlns:xlink="http://www.w3.org/1999/xlink" width="1308" height="787" fill="none" xmlns:v="https://vecta.io/nano"><style><![CDATA[.B{fill:#fff}.C{fill-rule:evenodd}.D{fill:#f0f0f0}.E{fill:#5f5f5f}.F{fill:#f06969}.G{fill:#dcdcdc}.H{fill:#ffd200}.I{fill:#e3e3e3}.J{fill:#bf0000}]]></style><path d="M668.939 576.685l-169.955-61.859V366.537l169.955 61.859v148.289z" class="D"/><path d="M668.939 576.685l169.955-61.859V366.537l-169.955 61.859v148.289z" class="G"/><path d="M537.829 457.655v71.309l85.835 31.241v-73.274a2.7 2.7 0 0 0-1.777-2.537l-80.435-29.276a2.7 2.7 0 0 0-3.623 2.537z" class="E"/><path d="M437.256 494.256V264.402v-.019h.001c-.005-2.264 1.384-4.512 4.081-6.068 4.805-2.774 11.938-2.306 15.932 1.045 1.753 1.471 2.609 3.252 2.612 5.023h.001v229.855.018h-.001c.005 2.264-1.384 4.511-4.081 6.068-4.805 2.774-11.938 2.306-15.932-1.045-1.752-1.47-2.608-3.252-2.613-5.023z" fill="#bebebe"/><path d="M678.372 269.473c-6.545-2.316-12.26-2.159-18.503-.133l-168.505 61.332a9 9 0 0 0-5.922 8.457v39.988a9 9 0 0 0 5.922 8.457l168.341 61.271a27 27 0 0 0 18.469 0l168.341-61.271a9 9 0 0 0 5.922-8.457v-39.988a9.01 9.01 0 0 0-5.929-8.46l-168.136-61.196z" class="F"/><path d="M659.705 410.419l-174.262-63.427v8.22l174.262 63.426a27 27 0 0 0 18.469 0l174.262-63.426v-8.22l-174.262 63.426c-5.965 2.172-12.504 2.172-18.469.001zm-174.263-47.386v8.22l174.262 63.426a27 27 0 0 0 18.469 0l174.262-63.426v-8.22l-174.262 63.426a27 27 0 0 1-18.469 0l-174.262-63.426z" fill="#f3b53b"/><path d="M501.107 177.852l-73.541-26.767a18 18 0 0 0-12.32.003l-6.154 2.243a11.7 11.7 0 0 0-7.694 10.993v82.826a13.5 13.5 0 0 0 8.883 12.686l73.9 26.898c2.982 1.086 6.252 1.086 9.235 0l7.692-2.8a11.7 11.7 0 0 0 7.698-10.994v-84.093c-.001-4.919-3.077-9.313-7.699-10.995z" fill="#ff9696"/><path d="M488.798 193.618v88.37c0 3.123 3.104 5.297 6.039 4.229l6.27-2.282a11.7 11.7 0 0 0 7.698-10.994v-83.278c0-4.373-4.346-7.416-8.455-5.92l-6.223 2.265c-3.199 1.163-5.329 4.204-5.329 7.61z" class="F"/><path d="M698.565 483.048v25.499a2.7 2.7 0 0 0 3.623 2.537l30.655-11.158a2.7 2.7 0 0 0 1.777-2.537V471.89a2.7 2.7 0 0 0-3.623-2.537l-30.655 11.158a2.7 2.7 0 0 0-1.777 2.537zm41.456-15.089v25.499a2.7 2.7 0 0 0 3.623 2.537l27.955-10.175a2.7 2.7 0 0 0 1.777-2.537v-25.499a2.7 2.7 0 0 0-3.623-2.537l-27.955 10.175a2.7 2.7 0 0 0-1.777 2.537zm71.187-27.8l-30.655 11.158a2.7 2.7 0 0 0-1.776 2.537v25.499a2.7 2.7 0 0 0 3.623 2.537l30.655-11.158a2.7 2.7 0 0 0 1.776-2.537v-25.499a2.7 2.7 0 0 0-3.623-2.537z" class="E"/><path d="M419.849 235.04c-.362-.132-.655-.604-.655-1.055v-5.456c0-2.474.35-4.566 1.051-6.275s1.828-3.175 3.384-4.402 3.648-2.298 6.281-3.219c2.051-.79 3.487-1.621 4.307-2.497s1.23-2.081 1.23-3.617a7.59 7.59 0 0 0-1.461-4.532c-.974-1.357-2.316-2.347-4.024-2.969-1.675-.61-3.282-.564-4.819.134-1.253.57-2.325 1.538-3.215 2.904-.273.419-.887.165-1.121-.467l-2.089-5.644c-.117-.315-.104-.646.039-.847 1.268-1.776 2.892-2.976 4.872-3.603 2.102-.664 4.315-.574 6.64.272 3.589 1.306 6.442 3.508 8.562 6.604s3.179 6.609 3.179 10.534c0 2.775-.701 5.005-2.102 6.692s-3.778 3.138-7.127 4.351c-1.845.695-3.281 1.388-4.307 2.081s-1.752 1.486-2.179 2.376-.64 1.975-.64 3.255v.128l16.265 5.92c.361.132.655.604.655 1.055v5.727c0 .451-.293.711-.655.579l-22.071-8.029zm42.25-28.789l5.814 2.116c.362.132.655.604.655 1.055v27.283l4.217 1.535c.362.132.655.604.655 1.055v4.894c0 .451-.293.711-.655.579l-4.217-1.535v8.721c0 .451-.293.711-.655.579l-4.894-1.781c-.362-.132-.655-.604-.655-1.055v-8.721l-15.496-5.64c-.361-.132-.654-.604-.654-1.055v-4.504a.75.75 0 0 1 .11-.414l15.23-22.947c.121-.183.326-.245.545-.165zm-9.477 24.651l9.742 3.546v-18.243l-9.742 14.697z" class="B"/><path d="M678.174 269.401l166.13 60.466c2.764 1.006 2.764 4.914 0 5.92l-166.13 60.466a27 27 0 0 1-18.469 0l-166.13-60.466c-2.764-1.006-2.764-4.914 0-5.92l166.13-60.466a26.99 26.99 0 0 1 18.469 0z" fill="#ff9696"/><path d="M1124.5 786.209L954.542 724.351V594.062L1124.5 655.921V786.209Z" class="D"/><path d="M1124.5 786.209l169.95-61.858V594.062l-169.95 61.859v130.288z" class="G"/><path d="M1122.96 494.124l-170.116 61.917A18 18 0 0 0 941 572.955v36.837a4.5 4.5 0 0 0 2.961 4.229l171.299 62.348c5.97 2.171 12.51 2.171 18.47 0l171.3-62.348c1.78-.647 2.96-2.337 2.96-4.229v-36.837a18 18 0 0 0-11.84-16.914l-170.11-61.917c-1-.361-2.09-.361-3.08 0z" class="H"/><path d="M1124.5 493.564l173.04 62.982c3.55 1.293 3.55 6.318 0 7.612l-163.81 59.621c-5.96 2.171-12.5 2.171-18.47 0l-163.803-59.621c-3.553-1.293-3.553-6.318 0-7.612l173.043-62.982z" fill="#ffe5a5"/><path d="M1115.26 430.131l-63.9 23.258a18 18 0 0 0-11.84 16.914v85.375c0 1.892 1.18 3.582 2.96 4.229l72.78 26.49c5.97 2.171 12.51 2.171 18.47 0l72.78-26.49c1.78-.647 2.97-2.337 2.97-4.229v-85.375c0-7.567-4.74-14.326-11.85-16.914l-63.9-23.258c-5.96-2.171-12.5-2.171-18.47 0z" class="H"/><path d="M1106.55 523.922l-15.85-5.771v-15.785a1.65 1.65 0 0 0-1.08-1.54l-14.1-5.13a1.64 1.64 0 0 0-2.2 1.54v14.593l-14.73-5.363a1.64 1.64 0 0 0-2.2 1.54v13.885c0 .689.43 1.304 1.08 1.54l15.85 5.77v15.785c0 .689.43 1.304 1.08 1.54l14.1 5.13c1.06.389 2.19-.402 2.19-1.54v-14.593l14.74 5.362a1.64 1.64 0 0 0 2.2-1.54v-13.883c0-.689-.43-1.304-1.08-1.54z" class="B"/><path d="M1187.58 500.868c-5.25-3.676-12.48-2.4-16.16 2.85l-11.24 16.056 19.01 13.311 11.24-16.056c3.68-5.25 2.4-12.485-2.85-16.161z" fill="#d5382e"/><path d="M1148.94 535.829c-3.68 5.25-2.4 12.485 2.85 16.161s12.48 2.4 16.16-2.85l11.24-16.056-19.01-13.311-11.24 16.056z" class="D"/><path d="M993.387 672.58v65.909l40.223 14.638v-67.874a2.7 2.7 0 0 0-1.78-2.537l-34.82-12.673a2.7 2.7 0 0 0-3.623 2.537zm84.053 26.739l-34.81-12.672a2.71 2.71 0 0 0-3.63 2.537v65.909l40.22 14.638v-67.874a2.7 2.7 0 0 0-1.78-2.538zm178.17-26.739v65.909l-40.22 14.638v-67.874a2.7 2.7 0 0 1 1.78-2.537l34.82-12.673a2.7 2.7 0 0 1 3.62 2.537zm-84.06 26.739l34.82-12.672a2.7 2.7 0 0 1 3.62 2.537v65.909l-40.22 14.638v-67.874a2.7 2.7 0 0 1 1.78-2.538z" class="E"/><path d="M1133.73 430.131l65.29 23.762c3.55 1.293 3.55 6.318 0 7.612l-68.37 24.883c-3.97 1.447-8.33 1.447-12.31 0l-68.36-24.883c-3.56-1.293-3.56-6.318 0-7.612l65.28-23.762c5.97-2.171 12.51-2.171 18.47 0z" fill="#ffe5a5"/><path d="M191.665 786.209L21.71 724.351V585.062l169.955 61.859v139.288z" class="D"/><path d="M191.665 786.209L361.62 724.351V585.062L191.665 646.921V786.209Z" class="G"/><path d="M328.6 526.436l-127.701-46.48a27 27 0 0 0-18.469 0l-127.701 46.48a44.99 44.99 0 0 0-18.226 12.371L1.824 577.778c-3.381 3.8-1.863 9.812 2.916 11.552l177.69 64.674a27 27 0 0 0 18.469 0l177.69-64.674c4.78-1.74 6.297-7.752 2.916-11.552l-34.679-38.971a44.99 44.99 0 0 0-18.226-12.371z" fill="#d5382e"/><path d="M50.291 639.913v16.233a4.5 4.5 0 0 0 2.961 4.229l99.858 36.345c2.935 1.068 6.039-1.105 6.039-4.229v-16.233a4.5 4.5 0 0 0-2.961-4.229L56.33 635.684c-2.935-1.067-6.039 1.106-6.039 4.229z" class="B"/><path d="M136.902 637.434c1.338-67.699-30.214-74.148-39.845-71.091l-16.706 6.114-.826 44.093 57.377 20.884z" class="F"/><path d="M97.981 572.882c-20.261-7.374-36.904 8.663-38.92 36.239l77.841 28.332c-2.017-29.044-18.66-57.197-38.921-64.571z" class="H"/><path d="M95.361 588.56c-1.354.158-2.93-.416-4.284-1.559-5.562-4.696-15.891-4.643-11.46 13.023 1.687 7.213 8 14.288 13.267 13.659.21-.025.459.066.67.244 5.268 4.464 11.581 1.985 13.267-4.001 4.431-14.441-5.898-22.013-11.46-21.366z" fill="#cc0d01"/><path d="M93.219 590.579c.247-4.015 3.549-6.887 5.493-7.383" stroke="#4b4b4b" stroke-width="2.7" stroke-miterlimit="10" stroke-linecap="round"/><g class="E"><use xlink:href="#E"/><use xlink:href="#E" x="36.088" y="13.135"/><use xlink:href="#E" x="-36.089" y="-13.135"/><use xlink:href="#E" x="72.177" y="26.27"/><use xlink:href="#F"/><use xlink:href="#F" x="-36.088" y="13.135"/><use xlink:href="#F" x="-72.177" y="26.27"/><use xlink:href="#F" x="-108.265" y="39.405"/></g><path d="M200.899 479.956l126.758 46.136c3.948 1.437 3.948 7.02 0 8.457l-126.758 46.137a27 27 0 0 1-18.469 0L55.672 534.55c-3.948-1.437-3.948-7.02 0-8.457l126.758-46.136c5.965-2.172 12.504-2.172 18.469-.001z" class="F"/><path d="M59.321 608.501l-.472 1.101 78.208 28.123-.304-.566-77.432-28.658z" class="D"/><mask id="A" class="B"><path d="M206.41 428.065C260.352 421.007 302 374.867 302 319c0-60.751-49.249-110-110-110S82 258.249 82 319c0 55.867 41.648 102.007 95.59 109.065l10.08 17.458c1.924 3.334 6.736 3.334 8.66 0l10.08-17.458z" class="C"/></mask><path d="M206.41 428.065C260.352 421.007 302 374.867 302 319c0-60.751-49.249-110-110-110S82 258.249 82 319c0 55.867 41.648 102.007 95.59 109.065l10.08 17.458c1.924 3.334 6.736 3.334 8.66 0l10.08-17.458z" class="B C"/><path d="M206.41 428.065l-.908-6.941-3.427.448-1.727 2.993 6.062 3.5zm-28.82 0l6.062-3.5-1.728-2.993-3.426-.448-.908 6.941zm10.08 17.458l-6.062 3.5 6.062-3.5zm8.66 0l6.062 3.5h0l-6.062-3.5zM295 319c0 52.306-38.996 95.516-89.498 102.124l1.816 13.881C264.7 427.498 309 378.428 309 319h-14zM192 216c56.885 0 103 46.115 103 103h14c0-64.617-52.383-117-117-117v14zM89 319c0-56.885 46.115-103 103-103v-14c-64.617 0-117 52.383-117 117h14zm89.498 102.124C127.996 414.516 89 371.306 89 319H75c0 59.428 44.3 108.498 101.682 116.005l1.816-13.881zm15.234 20.899l-10.08-17.458-12.124 7 10.08 17.458 12.124-7zm-3.464 0c.77-1.333 2.694-1.333 3.464 0l-12.124 7c4.618 8 16.165 8 20.784 0l-12.124-7zm10.08-17.458l-10.08 17.458 12.124 7 10.08-17.458-12.124-7z" mask="url(#A)" class="I"/><g class="J"><use xlink:href="#G"/><use xlink:href="#H"/><path d="M189.408 298.763c6.006 0 10.289 4.14 10.289 10.064s-4.263 10.105-10.289 10.105h-7.297v13.385h-3.833v-33.553h11.13v-.001zm-.246 16.582c3.751 0 6.436-2.726 6.436-6.518s-2.644-6.477-6.436-6.477h-7.03v13.016h7.03v-.021zm-50.279 25.642l-5.883-4.96h41.322l-35.439 4.96zm6.723-8.67v-10.966h4.755l8.219 10.966h8.404l-9.941-13.221c3.095-2.214 5.124-5.842 5.124-9.921 0-6.723-5.473-12.175-12.196-12.175h-11.089v35.337h6.723v-.02h.001zm0-28.614h4.386a5.49 5.49 0 0 1 5.473 5.473c0 3.034-2.46 5.473-5.473 5.473h-4.386v-10.946z"/></g><mask id="B" class="B"><path d="M683.41 219.065C737.352 212.007 779 165.867 779 110 779 49.249 729.751 0 669 0S559 49.249 559 110c0 55.867 41.648 102.007 95.59 109.065l10.08 17.458c1.924 3.334 6.736 3.334 8.66 0l10.08-17.458z" class="C"/></mask><path d="M683.41 219.065C737.352 212.007 779 165.867 779 110 779 49.249 729.751 0 669 0S559 49.249 559 110c0 55.867 41.648 102.007 95.59 109.065l10.08 17.458c1.924 3.334 6.736 3.334 8.66 0l10.08-17.458z" class="B C"/><path d="M683.41 219.065l-.908-6.941-3.427.448-1.727 2.993 6.062 3.5zm-28.82 0l6.062-3.5-1.728-2.993-3.426-.448-.908 6.941zm10.08 17.458l-6.062 3.5 6.062-3.5zm8.66 0l6.062 3.5h0l-6.062-3.5zM772 110c0 52.306-38.996 95.516-89.498 102.124l1.816 13.881C741.7 218.498 786 169.428 786 110h-14zM669 7c56.885 0 103 46.115 103 103h14C786 45.383 733.617-7 669-7V7zM566 110C566 53.115 612.115 7 669 7V-7c-64.617 0-117 52.383-117 117h14zm89.498 102.124C604.996 205.516 566 162.306 566 110h-14c0 59.428 44.3 108.498 101.682 116.005l1.816-13.881zm15.234 20.899l-10.08-17.458-12.124 7 10.08 17.458 12.124-7zm-3.464 0c.77-1.333 2.694-1.333 3.464 0l-12.124 7c4.618 8 16.165 8 20.784 0l-12.124-7zm10.08-17.458l-10.08 17.458 12.124 7 10.08-17.458-12.124-7z" mask="url(#B)" class="I"/><g class="J"><use xlink:href="#G" x="477" y="-209"/><use xlink:href="#H" x="477" y="-209"/><path d="M666.408 89.763c6.006 0 10.289 4.14 10.289 10.064s-4.263 10.105-10.289 10.105h-7.297v13.385h-3.833V89.764h11.13v-.001zm-.246 16.582c3.751 0 6.436-2.726 6.436-6.518s-2.644-6.477-6.436-6.477h-7.03v13.016h7.03v-.021zm-50.279 25.642l-5.883-4.96h41.322l-35.439 4.96zm6.723-8.67v-10.966h4.755l8.219 10.966h8.404l-9.941-13.221c3.095-2.214 5.124-5.842 5.124-9.921 0-6.723-5.473-12.175-12.196-12.175h-11.089v35.337h6.723v-.02h.001zm0-28.614h4.386a5.49 5.49 0 0 1 5.473 5.473c0 3.034-2.46 5.473-5.473 5.473h-4.386V94.703z"/></g><mask id="C" class="B"><path d="M1137.41 378.065C1191.35 371.007 1233 324.867 1233 269c0-60.751-49.25-110-110-110s-110 49.249-110 110c0 55.867 41.65 102.007 95.59 109.065l10.08 17.458c1.92 3.334 6.74 3.334 8.66 0l10.08-17.458z" class="C"/></mask><path d="M1137.41 378.065C1191.35 371.007 1233 324.867 1233 269c0-60.751-49.25-110-110-110s-110 49.249-110 110c0 55.867 41.65 102.007 95.59 109.065l10.08 17.458c1.92 3.334 6.74 3.334 8.66 0l10.08-17.458z" class="B C"/><path d="M1137.41 378.065l-.91-6.941-3.42.448-1.73 2.993 6.06 3.5zm-28.82 0l6.06-3.5-1.73-2.993-3.42-.448-.91 6.941zm10.08 17.458l-6.06 3.5 6.06-3.5zm8.66 0l6.06 3.5h0l-6.06-3.5zM1226 269c0 52.306-39 95.516-89.5 102.124l1.82 13.881C1195.7 377.498 1240 328.428 1240 269h-14zm-103-103c56.89 0 103 46.115 103 103h14c0-64.617-52.38-117-117-117v14zm-103 103c0-56.885 46.11-103 103-103v-14c-64.62 0-117 52.383-117 117h14zm89.5 102.124C1059 364.516 1020 321.306 1020 269h-14c0 59.428 44.3 108.498 101.68 116.005l1.82-13.881zm15.23 20.899l-10.08-17.458-12.12 7 10.08 17.458 12.12-7zm-3.46 0a2 2 0 0 1 3.46 0l-12.12 7c4.62 8 16.16 8 20.78 0l-12.12-7zm10.08-17.458l-10.08 17.458 12.12 7 10.08-17.458-12.12-7z" mask="url(#C)" class="I"/><path d="M1181.08 255.445l-9.63 29.208c-1.03 3.116-3.28 4.858-6.19 4.858-1.83 0-3.51-.676-4.78-1.927l1.78-2.767c.86.758 1.66 1.107 2.73 1.107 1.49 0 2.21-.635 2.95-2.644l.59-1.619-9.3-26.236h4l7.13 20.866 6.74-20.866h3.98v.02h0zm-29.35 23.941c-2.09 2.48-4.47 3.628-7.59 3.628-7.03 0-11.84-5.76-11.84-14.122s4.85-14.081 11.95-14.081c3.19 0 5.41.943 7.54 3.157l.55-2.521h3.43v26.871h-3.43l-.61-2.932zm-15.36-10.495c0 6.108 3.32 10.535 7.85 10.535s7.81-4.386 7.81-10.494c0-6.149-3.28-10.535-7.85-10.535-4.48 0-7.81 4.468-7.81 10.494zm-15.96-20.128c6 0 10.29 4.14 10.29 10.064s-4.27 10.105-10.29 10.105h-7.3v13.385h-3.83v-33.553h11.13v-.001zm-.25 16.582c3.75 0 6.44-2.726 6.44-6.518s-2.65-6.477-6.44-6.477h-7.03v13.016h7.03v-.021zm-50.28 25.642l-5.88-4.96h41.32l-35.44 4.96zm6.73-8.67v-10.966h4.75l8.22 10.966h8.4l-9.94-13.221c3.1-2.214 5.13-5.842 5.13-9.921 0-6.723-5.48-12.175-12.2-12.175h-11.09v35.337h6.72v-.02h.01zm0-28.614h4.38c3.01 0 5.47 2.46 5.47 5.473 0 3.034-2.46 5.473-5.47 5.473h-4.38v-10.946z" class="J"/><defs ><path id="E" d="M103.004 753.899l-31.087-11.315v-49.462a2.7 2.7 0 0 1 3.623-2.537l25.687 9.349a2.7 2.7 0 0 1 1.777 2.537v51.428z"/><path id="F" d="M316.414 740.764l31.087-11.315v-49.462a2.7 2.7 0 0 0-3.623-2.537l-25.687 9.349a2.7 2.7 0 0 0-1.777 2.537v51.428z"/><path id="G" d="M250.079 305.445l-9.634 29.208c-1.025 3.116-3.28 4.858-6.19 4.858-1.824 0-3.505-.676-4.776-1.927l1.783-2.767c.861.758 1.66 1.107 2.726 1.107 1.496 0 2.214-.635 2.952-2.644l.594-1.619-9.306-26.236h3.997l7.133 20.866 6.744-20.866h3.976v.02h.001z"/><path id="H" d="M220.728 329.386c-2.091 2.48-4.468 3.628-7.584 3.628-7.03 0-11.847-5.76-11.847-14.122s4.858-14.081 11.95-14.081c3.198 0 5.411.943 7.543 3.157l.553-2.521h3.423v26.871h-3.423l-.615-2.932zm-15.353-10.495c0 6.108 3.32 10.535 7.85 10.535s7.809-4.386 7.809-10.494c0-6.149-3.28-10.535-7.85-10.535-4.488 0-7.809 4.468-7.809 10.494z"/></defs></svg>