<svg width="56" height="56" viewBox="0 0 56 56" fill="none" xmlns="http://www.w3.org/2000/svg">
<path fill-rule="evenodd" clip-rule="evenodd" d="M47.25 40.25V8.75H8.75V40.25H21H22.449L23.4745 41.2755L28 45.801L32.5255 41.2755L33.5492 40.25H35H47.25ZM47.25 5.25C49.182 5.25 50.75 6.818 50.75 8.75V40.25C50.75 42.182 49.182 43.75 47.25 43.75H35L28 50.75L21 43.75H8.75C6.818 43.75 5.25 42.182 5.25 40.25V8.75C5.25 6.818 6.818 5.25 8.75 5.25H47.25Z" fill="#666666"/>
<path fill-rule="evenodd" clip-rule="evenodd" d="M15.75 33.25H28V29.75H15.75V33.25Z" fill="#BF0000"/>
<path fill-rule="evenodd" clip-rule="evenodd" d="M15.75 26.25H40.25V22.75H15.75V26.25Z" fill="#BF0000"/>
<path fill-rule="evenodd" clip-rule="evenodd" d="M15.75 19.25H40.25V15.75H15.75V19.25Z" fill="#BF0000"/>
</svg>
