<?xml version="1.0" encoding="utf-8"?>
<!-- Generator: Adobe Illustrator 27.1.1, SVG Export Plug-In . SVG Version: 6.00 Build 0)  -->
<svg version="1.1" id="Layer_1" xmlns="http://www.w3.org/2000/svg" xmlns:xlink="http://www.w3.org/1999/xlink" x="0px" y="0px"
	 viewBox="0 0 56 56" style="enable-background:new 0 0 56 56;" xml:space="preserve">
<style type="text/css">
	.st0{fill-rule:evenodd;clip-rule:evenodd;fill:#666666;}
	.st1{fill-rule:evenodd;clip-rule:evenodd;fill:#BF0000;}
</style>
<path class="st0" d="M39,35V17H17v18h7h0.8l0.6,0.6l2.6,2.6l2.6-2.6l0.6-0.6H32H39z M39,15c1.1,0,2,0.9,2,2v18c0,1.1-0.9,2-2,2h-7
	l-4,4l-4-4h-7c-1.1,0-2-0.9-2-2V17c0-1.1,0.9-2,2-2H39z"/>
<path class="st1" d="M21,31h7v-2h-7V31z"/>
<path class="st1" d="M21,27h14v-2H21V27z"/>
<path class="st1" d="M21,23h14v-2H21V23z"/>
</svg>
