<svg xmlns="http://www.w3.org/2000/svg" width="222" height="32" fill="#bf0000" xmlns:v="https://vecta.io/nano"><path d="M84.156 26.88H20.929L25.972 32l58.184-5.12z"/><path fill-rule="evenodd" d="M26.791 6.976v-.768H30.7v17.408h-3.908v-.768c-1.135.768-2.206 1.216-3.656 1.216-4.476 0-7.817-4.096-7.817-9.152s3.404-9.152 7.817-9.152c1.45 0 2.458.448 3.656 1.216zm-7.439 7.936c0 2.752 1.576 4.928 3.782 4.928 2.143 0 3.719-2.176 3.719-4.928s-1.513-4.928-3.719-4.928-3.782 2.176-3.782 4.928z"/><path d="M57.995 6.208v10.24c0 1.92-1.324 3.52-3.215 3.52s-3.215-1.6-3.215-3.52V6.208h-3.908v10.24c0 4.224 2.837 7.616 6.997 7.616 1.891 0 3.341-1.088 3.341-1.088v.64h3.908V6.208h-3.908zm36.31 17.408v-10.24c0-1.92 1.324-3.52 3.215-3.52s3.215 1.6 3.215 3.52v10.24h3.908v-10.24c0-4.224-2.837-7.616-6.997-7.616-1.891 0-3.341 1.088-3.341 1.088v-.64h-3.908v17.408h3.908z"/><path fill-rule="evenodd" d="M4.097 16.96v6.72H0V1.92h6.745c4.034 0 7.375 3.328 7.375 7.488 0 2.56-1.198 4.8-3.089 6.144l6.052 8.128h-5.106l-4.98-6.72h-2.9zM6.745 6.016H4.097V12.8h2.648c1.828 0 3.341-1.536 3.341-3.392S8.573 6.016 6.745 6.016z"/><path d="M72.368 19.584c-.378.256-.819.448-1.324.448-.63 0-1.828-.512-1.828-2.112v-7.488h3.341v-4.16h-3.341V1.92h-3.908v4.352h-2.08v4.16h2.08v7.488c0 3.904 2.9 6.208 5.8 6.208 1.072 0 2.585-.384 3.782-1.088l-2.522-3.456zm-32.024-5.248l6.682-8.128h-5.421l-4.728 6.08V.384h-3.971v23.232h3.971v-7.168l5.799 7.168h5.421l-7.754-9.28z"/><path d="M73.628 14.912c0-5.12 3.215-9.152 7.754-9.152 4.413 0 8.447 4.096 7.375 10.304h-11.22c.504 4.032 4.98 6.016 7.628 2.048l3.467 2.048c-2.206 3.2-4.791 3.904-6.871 3.904-4.097 0-8.132-3.776-8.132-9.152zm11.158-2.24h-6.997c.82-4.096 6.241-4.352 6.997 0zM119.7 2.751h-6.892V24h2.377v-8.478h4.515c3.723 0 6.364-2.646 6.364-6.399s-2.641-6.372-6.364-6.372zm-.159 10.503h-4.356V5.019h4.356c2.351 0 3.988 1.701 3.988 4.104s-1.664 4.131-3.988 4.131zM138.67 24l-.369-1.863c-1.294 1.566-2.773 2.295-4.701 2.295-4.356 0-7.34-3.645-7.34-8.937s3.01-8.91 7.393-8.91c1.981 0 3.354.594 4.674 1.998l.343-1.593h2.113V24h-2.113zm-9.875-8.505c0-3.807 2.059-6.642 4.832-6.642 2.825 0 4.858 2.781 4.858 6.669 0 3.861-2.033 6.642-4.832 6.642s-4.858-2.808-4.858-6.669zm24.357-8.505h2.482l-5.968 18.495c-.634 1.971-2.033 3.078-3.829 3.078-1.135 0-2.165-.432-2.957-1.215l1.109-1.755c.528.486 1.03.702 1.69.702.924 0 1.373-.405 1.822-1.674l.37-1.026-5.757-16.605h2.456l4.41 13.203 4.172-13.203zm6.322 1.512l-.343-1.512h-1.981V24h2.377V13.2c0-2.268 1.637-4.347 3.406-4.347 1.795 0 2.984 1.728 2.984 4.347V24h2.376V13.2c0-2.43 1.479-4.347 3.38-4.347 1.848 0 3.01 1.701 3.01 4.347V24h2.377V13.2c0-3.996-1.981-6.615-5.044-6.615-2.006 0-3.591.972-4.753 2.916-.713-1.836-2.138-2.916-3.881-2.916-1.558 0-2.958.675-3.908 1.917zm22.112 5.454h9.295c-.211-3.132-2.007-5.184-4.462-5.184-1.638 0-3.116.891-3.988 2.376-.475.837-.713 1.566-.845 2.808zm11.804 6.939l-1.954-1.512c-.872 1.809-2.615 2.862-4.727 2.862-1.267 0-2.509-.594-3.459-1.647-1.056-1.161-1.558-2.484-1.69-4.455h11.935c.079-.513.106-.864.106-1.323 0-4.617-3.169-8.235-7.209-8.235-4.357 0-7.367 3.645-7.367 8.883 0 5.265 3.169 8.964 7.684 8.964 2.931 0 5.255-1.242 6.681-3.537zm4.79-13.905l.317 1.35c1.003-1.053 2.825-1.755 4.568-1.755 3.565 0 5.994 2.781 5.994 6.831V24h-2.376V13.389c0-2.781-1.532-4.536-3.961-4.536-2.245 0-4.278 2.106-4.278 4.455V24h-2.376V6.99h2.112zm17.756-3.726h-2.377V6.99h-2.851v2.268h2.851v10.746c0 .999.08 1.593.291 2.16.554 1.539 1.716 2.268 3.538 2.268s2.852-.567 4.04-2.295l-1.795-1.269c-.555.972-1.083 1.296-2.007 1.296-1.109 0-1.69-.567-1.69-1.62V9.258h4.172V6.99h-4.172V3.264z" fill-rule="evenodd"/></svg>